PathFileType	4	(X/Y/Z)	./resultDataOpenSim/trcMotMarkerGrf/sub10/qtm-04-02.trc
DataRate	CameraRate	NumFrames	NumMarkers	Units	OrigDataRate	OrigDataStartFrame	OrigNumFrames
250.000000	250.000000	9	24	m	250.000000	264	527
Frame#	Time	L.Toe.Tip			R.Toe.Tip			L.Ankle.Lat			R.Ankle.Lat			L.Ankle.Med			R.Ankle.Med			L.Heel			R.Heel			L.Knee.Lat			R.Knee.Lat			L.Knee.Med			R.Knee.Med			L.Thigh.Upper			R.Thigh.Upper			L.ASIS			R.ASIS			V.Sacral			L.Acromium			R.Acromium			C7			L.Elbow			R.Elbow			L.Wrist.Lat			R.Wrist.Lat
		X1	Y1	Z1	X2	Y2	Z2	X3	Y3	Z3	X4	Y4	Z4	X5	Y5	Z5	X6	Y6	Z6	X7	Y7	Z7	X8	Y8	Z8	X9	Y9	Z9	X10	Y10	Z10	X11	Y11	Z11	X12	Y12	Z12	X13	Y13	Z13	X14	Y14	Z14	X15	Y15	Z15	X16	Y16	Z16	X17	Y17	Z17	X18	Y18	Z18	X19	Y19	Z19	X20	Y20	Z20	X21	Y21	Z21	X22	Y22	Z22	X23	Y23	Z23	X24	Y24	Z24

264	1.052	-0.0058878785	-0.032931191	-0.11758907	-0.08222042	0.073794331	0.035300321	-0.13406307	0.00097134951	-0.16482153	-0.17955443	0.17653406	0.014622894	-0.1352766	0.027038207	-0.083253621	-0.12118557	0.16535832	-0.052004457	-0.20604134	-0.01998598	-0.12752317	-0.21670549	0.17417675	-0.048256367	-0.034538226	0.37794658	-0.19780579	0.09273761	0.43450256	0.080751806	-0.042533406	0.35783281	-0.07596183	0.15040558	0.43310485	-0.041087517	-0.010508521	0.77064517	-0.26177633	-0.065856327	0.79883882	0.11208173	0.039316672	0.87955036	-0.19174722	0.010932629	0.89478347	0.048672766	-0.17059913	0.90412551	-0.096503668	-0.024750483	1.3641051	-0.23868174	-0.045281898	1.3609546	0.080603188	-0.11790173	1.3877666	-0.09253359	-0.12957729	1.0408379	-0.32347989	-0.11191615	1.0150952	0.11163669	0.019055097	0.85832605	-0.40511089	0.022576671	0.81794501	0.16525758
265	1.056	-0.0058822677	-0.032860468	-0.1176872	-0.062582595	0.07286435	0.035565596	-0.13394557	0.0016036379	-0.16505174	-0.16340134	0.17190451	0.014254269	-0.13489588	0.02772874	-0.083456651	-0.10439087	0.16272992	-0.052231057	-0.20585435	-0.019041751	-0.12754487	-0.20054137	0.16818689	-0.048263103	-0.034515126	0.37873629	-0.19833416	0.10273948	0.43745808	0.08005647	-0.042601183	0.35858792	-0.076368477	0.15966511	0.4372686	-0.041782952	-0.0072214468	0.77117733	-0.26199432	-0.060460573	0.80071858	0.11278796	0.043605314	0.88030257	-0.19221123	0.016333968	0.89623988	0.047875345	-0.16615626	0.90577467	-0.09442508	-0.019739542	1.365216	-0.23892219	-0.040004048	1.3619756	0.08039056	-0.11263893	1.388876	-0.092617355	-0.1225533	1.0406047	-0.32302219	-0.10890938	1.0168291	0.11182826	0.029659932	0.86051672	-0.40321681	0.023459489	0.81839544	0.16665463
266	1.06	-0.0058915378	-0.032808734	-0.11775959	-0.042957776	0.071936815	0.035805508	-0.13383146	0.0022407345	-0.16529648	-0.14708413	0.16722681	0.013858724	-0.13467113	0.028373784	-0.083743028	-0.08731859	0.16000528	-0.052358714	-0.20561109	-0.018165555	-0.12762663	-0.18428184	0.16211643	-0.048265556	-0.034485908	0.37949037	-0.19885269	0.11258941	0.44033288	0.079341292	-0.042749306	0.35937779	-0.076745321	0.16873696	0.44132365	-0.042481502	-0.0039359979	0.77168823	-0.26220166	-0.054729711	0.80253497	0.11327795	0.0478419	0.88103175	-0.19270766	0.02174398	0.89765191	0.04709248	-0.16281713	0.90781966	-0.091870689	-0.014736035	1.3662666	-0.23915764	-0.034716064	1.3629308	0.080181647	-0.10734562	1.3899615	-0.092743745	-0.11554291	1.0403088	-0.32261713	-0.10591416	1.0185126	0.11209538	0.040256287	0.86270645	-0.40124035	0.024246844	0.8188381	0.16804538
267	1.064	-0.0059478273	-0.032795684	-0.11780537	-0.023359855	0.071008907	0.036014547	-0.13370617	0.0028889064	-0.16553776	-0.13063894	0.16251047	0.013441965	-0.13464226	0.02900057	-0.084081678	-0.070372926	0.15704607	-0.052612332	-0.20536036	-0.017326755	-0.12773687	-0.16801152	0.15602078	-0.04843934	-0.034450754	0.38021684	-0.19935554	0.12223966	0.44310318	0.078604688	-0.042850799	0.36019115	-0.077129427	0.1776267	0.44525793	-0.04317992	-0.00069570155	0.77217264	-0.26240428	-0.048702773	0.80431112	0.11356351	0.051880818	0.88169055	-0.19330213	0.027155107	0.89901596	0.046324633	-0.16026742	0.91017931	-0.088879149	-0.0097414981	1.3672567	-0.23938886	-0.02940676	1.3638178	0.079980845	-0.10194305	1.3909978	-0.093053583	-0.10858689	1.0401163	-0.32249487	-0.10284167	1.020133	0.11239952	0.050877434	0.86488389	-0.39915914	0.024982289	0.8192744	0.16942265
268	1.068	-0.0060380308	-0.032807838	-0.11783759	-0.0038023089	0.070090989	0.036197126	-0.13356177	0.0035478601	-0.16577032	-0.11406458	0.1577807	0.013035154	-0.13475749	0.029627898	-0.084414297	-0.053648541	0.15387622	-0.053043735	-0.2051507	-0.01647704	-0.12783746	-0.15165276	0.14993661	-0.048759505	-0.034392094	0.38092417	-0.19983747	0.13168445	0.44575235	0.077849755	-0.04272117	0.36099001	-0.077599586	0.18634467	0.44906217	-0.043876778	0.0024597794	0.77262678	-0.2625997	-0.042544354	0.80606654	0.11375695	0.055739482	0.88227437	-0.19399058	0.032557336	0.90033084	0.045571428	-0.15780047	0.91247241	-0.085943755	-0.0047615016	1.3681868	-0.23961447	-0.024064803	1.3646372	0.079790564	-0.096440033	1.391941	-0.093505196	-0.10166048	1.0400587	-0.32265937	-0.099701686	1.0216851	0.1127142	0.061499952	0.86704973	-0.39699797	0.025741871	0.81970994	0.17078399
269	1.072	-0.0061071187	-0.032802935	-0.11788049	0.015717005	0.069207176	0.036363577	-0.1334223	0.0042104397	-0.16597249	-0.097333444	0.15307236	0.012688622	-0.13488196	0.030257218	-0.084683646	-0.036951645	0.15066268	-0.053510637	-0.20498722	-0.015611723	-0.12791189	-0.13498449	0.14384814	-0.049099832	-0.034286151	0.38161916	-0.2003103	0.14094595	0.44827979	0.077087304	-0.04235062	0.36175129	-0.07815396	0.19489807	0.45273122	-0.044573267	0.0055423716	0.77305398	-0.26277375	-0.036354627	0.8077946	0.11392903	0.059567049	0.88281589	-0.19470928	0.037945387	0.90159699	0.044833203	-0.15499868	0.91448734	-0.083453964	0.00020510971	1.3690544	-0.23982856	-0.018690751	1.3653872	0.079614147	-0.090943974	1.3927648	-0.093862241	-0.094727178	1.0400485	-0.32295646	-0.09654578	1.0231697	0.11303656	0.072076795	0.86921282	-0.39479605	0.026555153	0.82014605	0.17213611
270	1.076	-0.0061195528	-0.032756124	-0.11794775	0.035218332	0.068385158	0.036521178	-0.13336073	0.0048655351	-0.16606877	-0.080452695	0.14841496	0.012479149	-0.13491683	0.030896165	-0.084877077	-0.020118793	0.14753612	-0.053866027	-0.2048523	-0.014746437	-0.12795805	-0.1177592	0.13771591	-0.049460012	-0.034116449	0.38231488	-0.20080183	0.15004424	0.45070408	0.07633189	-0.041986632	0.36249079	-0.07864742	0.20328537	0.45626177	-0.045266744	0.0085786581	0.77345753	-0.2629179	-0.030140774	0.80947611	0.11408712	0.063461719	0.88333993	-0.19541404	0.043318449	0.902815	0.04411372	-0.15237413	0.91648635	-0.081096021	0.0051612464	1.3698515	-0.2400276	-0.013292564	1.366062	0.079456804	-0.085544539	1.3934915	-0.093945856	-0.087779808	1.0399792	-0.32323243	-0.093412633	1.0245887	0.11337464	0.082588419	0.87137807	-0.39256684	0.027412509	0.82057868	0.17348557
271	1.08	-0.0060914246	-0.032684794	-0.11803158	0.054721367	0.067643248	0.036662937	-0.13346649	0.0055018254	-0.16595176	-0.063500326	0.1438277	0.012487384	-0.13486289	0.031563492	-0.085015029	-0.0031343688	0.14452831	-0.054068263	-0.20475344	-0.013868312	-0.1279722	-0.099873444	0.13153877	-0.04993335	-0.033903525	0.38302935	-0.20132907	0.15899124	0.45304855	0.075593192	-0.041903335	0.36324199	-0.07890315	0.21149948	0.45965099	-0.045946852	0.011552583	0.77382959	-0.26304293	-0.023876088	0.81109599	0.11422051	0.067416407	0.88384582	-0.19610476	0.04867489	0.90398511	0.043420515	-0.15063006	0.91878762	-0.078343394	0.01010184	1.370569	-0.24021913	-0.0078727215	1.3666549	0.079318235	-0.080228004	1.3941747	-0.093807077	-0.080814574	1.0397849	-0.32340072	-0.090309848	1.0259449	0.11373142	0.093041153	0.87354217	-0.39030656	0.028308937	0.82100195	0.1748305
272	1.084	-0.0060505614	-0.032618586	-0.11811815	0.074239218	0.066988476	0.036775624	-0.1337339	0.0061147406	-0.16561173	-0.046554241	0.1393104	0.012700126	-0.13477742	0.032271159	-0.085113999	0.013964798	0.14162918	-0.054155161	-0.20473057	-0.0129318	-0.1279437	-0.081546196	0.12540487	-0.050487996	-0.033765822	0.38376081	-0.20183832	0.16779347	0.4553188	0.074871022	-0.042116464	0.36401433	-0.078895981	0.21953902	0.46289716	-0.046604691	0.014462716	0.77416135	-0.26315919	-0.017548631	0.81264785	0.11432931	0.071392353	0.88432032	-0.19679766	0.05400308	0.90510239	0.042755184	-0.14930943	0.92117121	-0.075369834	0.015021961	1.3712023	-0.24041528	-0.0024270273	1.3671653	0.079190063	-0.074920116	1.3948478	-0.093618209	-0.073798022	1.0394558	-0.32343593	-0.087222552	1.0272401	0.11410068	0.10344339	0.87570113	-0.38801701	0.029248404	0.82140931	0.17616495
